<?xml version="1.0" encoding="UTF-8" standalone="no"?>
<!DOCTYPE svg PUBLIC "-//W3C//DTD SVG 20010904//EN"
              "http://www.w3.org/TR/2001/REC-SVG-20010904/DTD/svg10.dtd">

<svg xmlns="http://www.w3.org/2000/svg"
     width="1.33333in" height="0.483333in"
     viewBox="0 0 400 145">
  <path id="Auswahl"
        fill="none" stroke="black" stroke-width="1"
        d="M 188.00,4.00
           C 195.16,14.00 207.74,23.83 218.00,30.67
             253.02,54.01 289.68,60.94 331.00,61.00
             352.39,61.03 374.59,74.93 368.07,99.00
             367.13,102.50 365.32,106.06 363.21,109.00
             353.42,122.62 328.26,130.67 312.00,132.00
             315.75,133.60 319.94,133.95 324.00,134.00
             339.81,134.18 351.09,134.46 366.00,127.69
             372.97,124.52 378.56,120.35 384.00,114.99
             401.14,98.06 402.85,78.52 393.57,57.00
             390.96,50.93 385.25,41.35 379.99,37.43
             373.57,32.65 364.84,36.47 358.00,38.42
             345.78,41.90 324.56,45.85 312.00,46.00
             312.00,46.00 284.00,46.00 284.00,46.00
             262.84,45.97 237.28,37.56 219.00,27.13
             211.59,22.90 204.52,18.06 198.00,12.56
             198.00,12.56 188.00,4.00 188.00,4.00 Z
           M 255.00,67.00
           C 258.64,67.73 262.55,66.12 267.00,66.01
             273.21,65.87 278.22,66.72 284.00,69.09
             302.67,76.76 313.21,98.85 306.45,118.00
             302.45,129.34 298.13,130.43 292.00,139.00
             314.70,125.74 318.96,92.19 298.91,74.46
             285.44,62.55 271.35,62.26 255.00,67.00 Z
           M 253.00,68.00
           C 253.00,68.00 253.00,69.00 253.00,69.00
             253.00,69.00 254.00,68.00 254.00,68.00
             254.00,68.00 253.00,68.00 253.00,68.00 Z
           M 160.00,70.00
           C 160.00,70.00 160.00,75.00 160.00,75.00
             160.00,75.00 165.00,75.00 165.00,75.00
             165.00,75.00 165.00,70.00 165.00,70.00
             165.00,70.00 160.00,70.00 160.00,70.00 Z
           M 271.00,71.00
           C 274.81,74.87 277.83,75.35 283.00,74.00
             279.04,69.64 276.53,69.45 271.00,71.00 Z
           M 247.00,81.00
           C 252.09,79.05 254.09,78.34 256.00,73.00
             250.71,73.61 247.06,75.10 247.00,81.00 Z
           M 111.00,90.00
           C 108.57,94.18 107.21,93.44 103.00,92.00
             103.00,92.00 102.00,96.00 102.00,96.00
             112.64,100.42 117.39,94.27 115.39,89.13
             113.72,84.84 110.32,87.05 107.00,81.00
             107.00,81.00 115.00,82.00 115.00,82.00
             115.00,82.00 116.00,78.01 116.00,78.01
             112.83,77.23 108.14,76.25 105.15,78.01
             101.35,80.26 99.27,87.49 111.00,90.00 Z
           M 128.00,97.00
           C 128.00,97.00 134.00,97.00 134.00,97.00
             134.00,97.00 137.00,85.00 137.00,85.00
             137.00,85.00 140.00,97.00 140.00,97.00
             141.73,96.94 143.83,97.11 145.30,96.01
             147.64,94.26 151.24,81.32 152.00,78.00
             152.00,78.00 147.00,77.00 147.00,77.00
             147.00,77.00 144.00,90.00 144.00,90.00
             144.00,90.00 140.00,77.00 140.00,77.00
             132.94,77.59 133.94,80.02 131.00,89.00
             131.00,89.00 128.00,77.00 128.00,77.00
             126.55,77.26 125.04,77.23 124.06,78.60
             122.19,81.22 127.17,93.37 128.00,97.00 Z
           M 160.00,77.00
           C 160.00,77.00 159.00,97.00 159.00,97.00
             159.00,97.00 165.00,97.00 165.00,97.00
             165.00,97.00 165.00,77.00 165.00,77.00
             165.00,77.00 160.00,77.00 160.00,77.00 Z
           M 183.00,91.00
           C 183.00,91.00 183.00,93.00 183.00,93.00
             183.00,93.00 175.00,92.00 175.00,92.00
             175.00,92.00 174.00,96.00 174.00,96.00
             185.05,100.59 188.98,93.53 187.24,89.21
             185.63,85.20 182.23,86.89 179.00,81.00
             183.25,81.14 184.63,81.94 188.00,79.00
             185.11,77.66 182.29,76.51 179.02,77.32
             174.59,78.41 172.80,83.12 175.60,86.73
             177.26,88.86 180.56,90.00 183.00,91.00 Z
           M 205.00,91.00
           C 205.00,91.00 205.00,93.00 205.00,93.00
             205.00,93.00 197.00,92.00 197.00,92.00
             195.78,101.29 209.98,98.28 209.46,91.01
             209.11,86.12 204.17,86.79 201.00,81.00
             205.40,81.30 206.57,82.17 210.00,79.00
             204.85,76.62 194.21,75.76 196.33,84.89
             197.19,88.58 201.88,89.75 205.00,91.00 Z
           M 290.00,82.00
           C 290.22,88.45 291.29,89.90 297.00,93.00
             298.39,86.83 295.90,83.75 290.00,82.00 Z
           M 250.01,92.17
           C 244.68,94.47 244.54,100.12 248.23,101.60
             253.12,103.57 258.38,93.62 250.01,92.17 Z
           M 273.15,92.04
           C 267.06,97.40 272.68,102.67 276.94,101.34
             282.66,99.57 281.70,89.68 273.15,92.04 Z
           M 235.00,93.00
           C 235.00,93.00 233.00,104.00 233.00,104.00
             235.73,100.60 236.59,97.15 235.00,93.00 Z
           M 70.00,104.00
           C 70.00,104.00 70.00,133.00 70.00,133.00
             70.00,133.00 75.00,133.00 75.00,133.00
             75.00,125.84 73.18,119.45 82.00,118.00
             82.00,118.00 82.00,133.00 82.00,133.00
             82.00,133.00 87.00,133.00 87.00,133.00
             87.00,126.91 89.66,111.86 80.00,113.40
             78.29,113.67 76.61,114.40 75.00,115.00
             75.00,115.00 76.00,104.00 76.00,104.00
             76.00,104.00 70.00,104.00 70.00,104.00 Z
           M 146.00,104.00
           C 146.00,104.00 146.00,133.00 146.00,133.00
             146.00,133.00 151.00,133.00 151.00,133.00
             151.00,133.00 151.00,125.00 151.00,125.00
             155.06,129.80 156.46,134.95 163.00,132.00
             156.94,122.45 154.79,124.35 163.00,116.00
             163.00,116.00 160.00,112.00 160.00,112.00
             160.00,112.00 152.00,122.00 152.00,122.00
             152.00,122.00 151.00,104.00 151.00,104.00
             151.00,104.00 146.00,104.00 146.00,104.00 Z
           M 299.00,116.00
           C 304.91,114.04 304.26,110.24 303.00,105.00
             297.15,107.00 298.12,110.84 299.00,116.00 Z
           M 55.00,111.00
           C 55.00,111.00 61.00,111.00 61.00,111.00
             59.94,104.96 56.06,104.96 55.00,111.00 Z
           M 3.00,113.00
           C 3.00,117.64 1.45,131.18 6.23,133.12
             6.23,133.12 20.00,133.12 20.00,133.12
             20.00,133.12 18.98,114.60 18.98,114.60
             18.98,114.60 15.00,113.00 15.00,113.00
             15.00,115.77 16.18,129.75 10.30,127.66
             7.02,126.51 8.00,115.99 8.00,113.00
             8.00,113.00 3.00,113.00 3.00,113.00 Z
           M 29.00,133.00
           C 29.00,133.00 34.00,133.00 34.00,133.00
             34.00,130.30 32.97,117.31 38.70,119.34
             41.91,120.47 41.00,130.09 41.00,133.00
             41.00,133.00 46.00,133.00 46.00,133.00
             46.00,127.84 47.75,115.77 41.94,113.61
             39.23,112.60 37.21,113.57 35.00,115.00
             26.33,109.10 29.00,128.56 29.00,133.00 Z
           M 55.07,133.00
           C 55.07,133.00 60.00,133.00 60.00,133.00
             60.00,133.00 60.98,119.00 60.98,119.00
             60.92,117.20 60.85,114.42 58.74,113.74
             56.43,113.00 55.45,115.24 55.07,117.06
             55.07,117.06 55.07,133.00 55.07,133.00 Z
           M 102.02,113.65
           C 88.93,119.43 96.48,137.64 107.98,133.26
             117.25,129.73 116.42,111.02 102.02,113.65 Z
           M 138.00,131.00
           C 133.65,126.98 132.24,129.71 129.43,127.36
             127.87,126.06 127.28,123.96 127.84,122.02
             129.19,117.39 134.45,118.47 138.00,117.00
             136.60,115.47 136.03,114.55 133.96,113.74
             119.82,108.25 117.37,135.94 132.00,133.57
             134.18,133.21 136.09,132.04 138.00,131.00 Z
           M 183.00,127.00
           C 177.89,129.54 176.11,129.79 174.00,124.00
             174.00,124.00 186.00,124.00 186.00,124.00
             185.83,120.59 185.69,117.04 182.72,114.74
             178.04,111.10 169.90,113.92 169.11,122.00
             168.65,126.72 170.20,131.48 175.02,133.25
             179.56,134.92 185.27,133.01 183.00,127.00 Z
           M 192.00,114.00
           C 192.00,114.00 195.05,124.00 195.05,124.00
             197.52,130.77 200.00,134.98 192.00,138.93
             193.90,144.37 198.26,142.69 201.01,138.93
             203.01,136.09 209.94,117.91 211.00,114.00
             211.00,114.00 206.00,113.00 206.00,113.00
             206.00,113.00 201.00,126.00 201.00,126.00
             201.00,126.00 197.00,113.00 197.00,113.00
             197.00,113.00 192.00,114.00 192.00,114.00 Z
           M 104.06,117.74
           C 111.10,118.05 109.53,128.04 105.79,129.12
             101.30,130.41 96.88,121.89 104.06,117.74 Z
           M 181.00,120.00
           C 181.00,120.00 174.00,120.00 174.00,120.00
             176.89,117.19 178.48,116.30 181.00,120.00 Z
           M 245.01,127.00
           C 245.15,125.30 245.39,123.72 245.01,122.02
             242.73,111.43 232.02,119.05 240.23,125.40
             241.88,126.69 243.08,126.69 245.01,127.00 Z
           M 261.44,117.02
           C 256.80,122.52 263.23,127.46 267.77,124.81
             272.70,121.93 269.56,113.91 261.44,117.02 Z
           M 281.00,137.00
           C 287.59,136.93 290.61,136.84 293.00,130.00
             286.17,127.17 281.61,129.46 281.00,137.00 Z
           M 255.00,138.00
           C 256.91,143.58 260.84,142.95 266.00,143.00
             263.32,137.99 260.39,137.45 255.00,138.00 Z
           M 290.00,139.00
           C 290.00,139.00 290.00,140.00 290.00,140.00
             290.00,140.00 291.00,139.00 291.00,139.00
             291.00,139.00 290.00,139.00 290.00,139.00 Z" />
</svg>
